HIERARCHY
ROOT Hips
{
  OFFSET 5.84602e-005 68.8428 3.50346
  CHANNELS 6 Xposition Yposition Zposition Zrotation Xrotation Yrotation
  JOINT Spine
  {
    OFFSET 0 8.597 -4.6522
    CHANNELS 3 Zrotation Xrotation Yrotation
    JOINT Spine1
    {
      OFFSET 0 7.8454 0.4098
      CHANNELS 3 Zrotation Xrotation Yrotation
      JOINT Spine2
      {
        OFFSET 0 9.7078 -2.1609
        CHANNELS 3 Zrotation Xrotation Yrotation
        JOINT Neck
        {
          OFFSET 0 21.8761 -0.4549
          CHANNELS 3 Zrotation Xrotation Yrotation
          JOINT Head
          {
            OFFSET 0 12.3537 3.3602
            CHANNELS 3 Zrotation Xrotation Yrotation
            End Site
            {
              OFFSET 0.0001 18.9506 0.5657
            }
          }
        }
        JOINT LeftShoulder
        {
          OFFSET 2.2086 21.1115 7.2329
          CHANNELS 3 Zrotation Xrotation Yrotation
          JOINT LeftArm
          {
            OFFSET 13.1193 3.0282 -4.8998
            CHANNELS 3 Zrotation Xrotation Yrotation
            JOINT LeftForeArm
            {
              OFFSET 27.4081 -0.0973053 -0.2375
              CHANNELS 3 Zrotation Xrotation Yrotation
              JOINT LeftHand
              {
                OFFSET 22.8641 0.0662994 -0.1369
                CHANNELS 3 Zrotation Xrotation Yrotation
                JOINT LeftHandIndex1
                {
                  OFFSET 8.8614 0.775009 2.4612
                  CHANNELS 3 Zrotation Xrotation Yrotation
                  JOINT LeftHandIndex2
                  {
                    OFFSET 3.3146 -0.808304 0.5841
                    CHANNELS 3 Zrotation Xrotation Yrotation
                    JOINT LeftHandIndex3
                    {
                      OFFSET 2.2628 -0.552002 0.3989
                      CHANNELS 3 Zrotation Xrotation Yrotation
                      End Site
                      {
                        OFFSET 1.6102 -0.4807 0.2612
                      }
                    }
                  }
                }
                JOINT LeftHandMiddle1
                {
                  OFFSET 8.9937 0.895004 0.2143
                  CHANNELS 3 Zrotation Xrotation Yrotation
                  JOINT LeftHandMiddle2
                  {
                    OFFSET 4.0984 0.0113983 -0.0242
                    CHANNELS 3 Zrotation Xrotation Yrotation
                    JOINT LeftHandMiddle3
                    {
                      OFFSET 2.2716 0.00689697 -0.0138001
                      CHANNELS 3 Zrotation Xrotation Yrotation
                      End Site
                      {
                        OFFSET 2.0404 -0.1441 0.0027
                      }
                    }
                  }
                }
                JOINT LeftHandRing1
                {
                  OFFSET 8.5234 0.597198 -2.0164
                  CHANNELS 3 Zrotation Xrotation Yrotation
                  JOINT LeftHandRing2
                  {
                    OFFSET 3.7188 -0.188293 -0.2328
                    CHANNELS 3 Zrotation Xrotation Yrotation
                    JOINT LeftHandRing3
                    {
                      OFFSET 2.1191 -0.106598 -0.1332
                      CHANNELS 3 Zrotation Xrotation Yrotation
                      End Site
                      {
                        OFFSET 1.8737 -0.2304 -0.0886
                      }
                    }
                  }
                }
                JOINT LeftHandPinky1
                {
                  OFFSET 7.9094 -0.601089 -3.4825
                  CHANNELS 3 Zrotation Xrotation Yrotation
                  JOINT LeftHandPinky2
                  {
                    OFFSET 2.2874 -0.477005 -0.6314
                    CHANNELS 3 Zrotation Xrotation Yrotation
                    JOINT LeftHandPinky3
                    {
                      OFFSET 1.6774 -0.349396 -0.4633
                      CHANNELS 3 Zrotation Xrotation Yrotation
                      End Site
                      {
                        OFFSET 1.4888 -0.4091 -0.3416
                      }
                    }
                  }
                }
                JOINT LeftHandThumb1
                {
                  OFFSET 1.833 -1.3875 1.3896
                  CHANNELS 3 Zrotation Xrotation Yrotation
                  JOINT LeftHandThumb2
                  {
                    OFFSET 3.4129 -1.121 2.5732
                    CHANNELS 3 Zrotation Xrotation Yrotation
                    JOINT LeftHandThumb3
                    {
                      OFFSET 2.2474 -0.804199 1.6192
                      CHANNELS 3 Zrotation Xrotation Yrotation
                      End Site
                      {
                        OFFSET 1.6527 -0.5689 1.1317
                      }
                    }
                  }
                }
              }
            }
          }
        }
        JOINT RightShoulder
        {
          OFFSET -2.2086 21.1115 7.2329
          CHANNELS 3 Zrotation Xrotation Yrotation
          JOINT RightArm
          {
            OFFSET -13.1216 3.0287 -4.9007
            CHANNELS 3 Zrotation Xrotation Yrotation
            JOINT RightForeArm
            {
              OFFSET -27.4081 -0.0973053 -0.2375
              CHANNELS 3 Zrotation Xrotation Yrotation
              JOINT RightHand
              {
                OFFSET -22.8641 0.0664063 -0.1369
                CHANNELS 3 Zrotation Xrotation Yrotation
                JOINT RightHandIndex1
                {
                  OFFSET -8.8614 0.774994 2.4612
                  CHANNELS 3 Zrotation Xrotation Yrotation
                  JOINT RightHandIndex2
                  {
                    OFFSET -3.3146 -0.808304 0.5841
                    CHANNELS 3 Zrotation Xrotation Yrotation
                    JOINT RightHandIndex3
                    {
                      OFFSET -2.2628 -0.552002 0.3989
                      CHANNELS 3 Zrotation Xrotation Yrotation
                      End Site
                      {
                        OFFSET -1.6102 -0.4807 0.2612
                      }
                    }
                  }
                }
                JOINT RightHandMiddle1
                {
                  OFFSET -8.9937 0.894989 0.2143
                  CHANNELS 3 Zrotation Xrotation Yrotation
                  JOINT RightHandMiddle2
                  {
                    OFFSET -4.0984 0.0113983 -0.0242
                    CHANNELS 3 Zrotation Xrotation Yrotation
                    JOINT RightHandMiddle3
                    {
                      OFFSET -2.2716 0.00691223 -0.0138001
                      CHANNELS 3 Zrotation Xrotation Yrotation
                      End Site
                      {
                        OFFSET -2.0404 -0.1441 0.0027
                      }
                    }
                  }
                }
                JOINT RightHandRing1
                {
                  OFFSET -8.5234 0.597198 -2.0164
                  CHANNELS 3 Zrotation Xrotation Yrotation
                  JOINT RightHandRing2
                  {
                    OFFSET -3.7188 -0.188309 -0.2328
                    CHANNELS 3 Zrotation Xrotation Yrotation
                    JOINT RightHandRing3
                    {
                      OFFSET -2.1191 -0.106598 -0.1332
                      CHANNELS 3 Zrotation Xrotation Yrotation
                      End Site
                      {
                        OFFSET -1.8737 -0.2304 -0.0886
                      }
                    }
                  }
                }
                JOINT RightHandPinky1
                {
                  OFFSET -7.9094 -0.601105 -3.4825
                  CHANNELS 3 Zrotation Xrotation Yrotation
                  JOINT RightHandPinky2
                  {
                    OFFSET -2.2874 -0.477005 -0.6314
                    CHANNELS 3 Zrotation Xrotation Yrotation
                    JOINT RightHandPinky3
                    {
                      OFFSET -1.6774 -0.349396 -0.4633
                      CHANNELS 3 Zrotation Xrotation Yrotation
                      End Site
                      {
                        OFFSET -1.4888 -0.4091 -0.3416
                      }
                    }
                  }
                }
                JOINT RightHandThumb1
                {
                  OFFSET -1.833 -1.38751 1.3896
                  CHANNELS 3 Zrotation Xrotation Yrotation
                  JOINT RightHandThumb2
                  {
                    OFFSET -3.41299 -1.12099 2.5732
                    CHANNELS 3 Zrotation Xrotation Yrotation
                    JOINT RightHandThumb3
                    {
                      OFFSET -2.24741 -0.804108 1.6192
                      CHANNELS 3 Zrotation Xrotation Yrotation
                      End Site
                      {
                        OFFSET -1.6527 -0.5689 1.1317
                      }
                    }
                  }
                }
              }
            }
          }
        }
      }
    }
  }
  JOINT RightUpLeg
  {
    OFFSET -9.1966 3.8861 -0.7581
    CHANNELS 3 Zrotation Xrotation Yrotation
    JOINT RightLeg
    {
      OFFSET -0.7359 -41.0265 0
      CHANNELS 3 Zrotation Xrotation Yrotation
      JOINT RightFoot
      {
        OFFSET 0 -40.2855 0
        CHANNELS 3 Zrotation Xrotation Yrotation
        JOINT RightToeBase
        {
          OFFSET 0 -5.6122 11.7359
          CHANNELS 3 Zrotation Xrotation Yrotation
          End Site
          {
            OFFSET 0 0 7.8731
          }
        }
      }
    }
  }
  JOINT LeftUpLeg
  {
    OFFSET 9.1965 3.8864 -0.7581
    CHANNELS 3 Zrotation Xrotation Yrotation
    JOINT LeftLeg
    {
      OFFSET 0.7359 -41.0268 0
      CHANNELS 3 Zrotation Xrotation Yrotation
      JOINT LeftFoot
      {
        OFFSET 0 -40.2855 0
        CHANNELS 3 Zrotation Xrotation Yrotation
        JOINT LeftToeBase
        {
          OFFSET 0 -5.6122 11.7359
          CHANNELS 3 Zrotation Xrotation Yrotation
          End Site
          {
            OFFSET 0 0 7.8731
          }
        }
      }
    }
  }
}
MOTION
Frames:	6
Frame Time:	0.0333333
5.84602e-005 68.8428 3.50346 0 0 -0 0 0 -0 0 0 -0 0 0 -0 0 0 -0 0 0 -0 0 0 -0 0 0 -0 0 0 -0 0 0 -0 0 0 -0 0 0 -0 0 0 -0 0 0 -0 -0.0146107 -8.87603e-005 -2.63497e-007 2.99804e-018 -2.42657e-020 -1.42182e-022 0 0 -0 -0.0187562 -0.001176 5.858e-005 5.06224e-018 3.88251e-019 1.21329e-020 0 0 -0 -0.012269 -0.00324817 0.000675346 -1.74678e-018 3.88251e-019 -0 0 0 -0 0 0 -0 0 0 -0 0 0 -0 0 0 -0 0 0 -0 0 0 -0 0 0 -0 0 0 -0 0 0 -0 0 0 -0 0.0149955 -9.10982e-005 2.64101e-007 -9.69331e-018 1.21329e-020 -4.7394e-023 0 0 -0 0.0189956 -0.00119102 -5.96516e-005 -5.41541e-019 0 2.42657e-020 0 0 -0 0.0122698 -0.00324857 -0.000673756 -2.00796e-019 0 -1.94126e-019 0 0 -0 0 0 -0 0 0 -0 3.39842 1.33031 -0.0637918 -5.65207e-008 0.834868 -0.000436188 -3.39935 -2.16518 -0.0642563 -8.89002e-024 -1.18485e-023 -1.48106e-024 -3.39844 1.35642 0.0640283 -3.18788e-007 0.782166 -0.000588827 3.39931 -2.13858 0.0634662 1.1399e-023 0 -0 
39.7391 68.3153 49.5741 180 75.004 -180 -0.373439 6.27625 -0.886839 -0.654368 12.5574 -1.74811 -0.654368 12.5575 -1.74811 -1.58284e-006 0.281526 -1.91836e-006 2.45197e-007 0.106658 2.33643e-006 -59.8515 34.4114 4.144 -17.9341 56.9923 -17.673 14.3298 -2.7364 -29.6093 43.3455 -8.54284 -4.13216 -2.27331e-006 -4.94848e-007 6.4674e-007 -7.95139e-016 7.55382e-015 -3.18055e-015 -2.59239e-006 -1.56528e-006 2.92126e-006 -2.27331e-006 -4.94848e-007 6.4674e-007 -0.0145098 -9.12735e-005 2.75766e-006 -4.54661e-006 -9.8986e-007 1.29336e-006 -2.27331e-006 -4.94848e-007 6.4674e-007 -0.0187495 -0.00117256 5.14214e-005 -4.5466e-006 -9.89906e-007 1.29336e-006 -2.27331e-006 -4.94848e-007 6.4674e-007 -0.0122914 -0.00325402 0.000678047 -2.59123e-006 -1.56529e-006 2.92111e-006 -2.27331e-006 -4.94848e-007 6.4674e-007 -7.95139e-016 7.55382e-015 -3.18055e-015 -2.59239e-006 -1.56528e-006 2.92126e-006 63.5863 33.7437 -6.37616 18.4933 57.1379 15.7568 -13.2548 -1.87222 19.6868 -43.3504 -8.59382 4.10794 -3.97569e-016 6.85807e-015 -0 -1.98785e-015 3.77691e-015 -1.59028e-015 -1.59028e-015 -2.38542e-015 1.59028e-015 -3.97569e-016 6.85807e-015 -0 0.0149427 -9.19363e-005 9.20035e-007 -0 -3.47873e-015 -0 -3.97569e-016 6.85807e-015 -0 0.0188808 -0.00118465 -6.02898e-005 -0 -7.85199e-015 -0 -3.97569e-016 6.85807e-015 -0 0.012135 -0.00320986 -0.000667794 -7.91512e-007 9.58295e-007 1.02922e-006 -3.97569e-016 6.85807e-015 -0 -1.98785e-015 3.77691e-015 -1.59028e-015 -1.59028e-015 -2.38542e-015 1.59028e-015 -164.431 -77.7828 -163.235 4.74769 0.0522324 -0.342514 -5.82407 -2.6294 -7.19543 4.27385e-007 -5.11417e-009 5.57518e-010 163.206 -77.0638 163.854 -5.69999 1.41877 0.36764 6.21497 -3.4218 5.44084 -6.7933e-007 6.63217e-008 8.14789e-008 
39.7391 68.3153 49.4686 180 75.004 -180 -0.366692 5.85727 -0.88716 -0.64673 11.7194 -1.75024 -0.64673 11.7194 -1.75024 -3.96175e-007 0.366304 -7.91687e-006 1.94797e-007 0.139014 7.38259e-007 -59.8453 35.3767 5.19034 -18.5007 57.1552 -17.3717 14.812 -3.01803 -31.2516 42.7127 -8.13787 -2.85248 -3.65823e-006 3.9174e-007 9.77025e-007 -3.21643e-007 -1.0762e-006 2.28288e-006 -2.27329e-006 -4.96602e-007 6.45509e-007 -3.65823e-006 3.9174e-007 9.77025e-007 -0.014583 -9.18388e-005 2.07e-006 -2.27328e-006 -4.96685e-007 6.45447e-007 -3.65823e-006 3.9174e-007 9.77025e-007 -0.0186991 -0.00116941 5.75971e-005 -3.84835e-006 -2.46471e-007 -6.24991e-007 -3.65823e-006 3.9174e-007 9.77025e-007 -0.0123338 -0.00326685 0.000678254 -2.27327e-006 -4.96658e-007 6.4552e-007 -3.65823e-006 3.9174e-007 9.77025e-007 -3.21643e-007 -1.0762e-006 2.28288e-006 -2.27329e-006 -4.96602e-007 6.45509e-007 63.1685 34.8236 -7.5179 19.1384 57.3133 15.4782 -14.0698 -2.18273 21.6881 -42.511 -7.85144 2.71861 -2.38542e-015 -1.19271e-015 -3.18055e-015 -2.31871e-006 1.87057e-007 6.47774e-007 -2.31871e-006 1.87057e-007 6.47774e-007 -2.38542e-015 -1.19271e-015 -3.18055e-015 0.0150478 -9.11702e-005 7.00131e-006 -2.31871e-006 1.87142e-007 6.47751e-007 -2.38542e-015 -1.19271e-015 -3.18055e-015 0.0190318 -0.00119627 -5.52032e-005 -2.3187e-006 1.87163e-007 6.47767e-007 -2.38542e-015 -1.19271e-015 -3.18055e-015 0.0121393 -0.00321272 -0.000662166 -2.3187e-006 1.87112e-007 6.47819e-007 -2.38542e-015 -1.19271e-015 -3.18055e-015 -2.31871e-006 1.87057e-007 6.47774e-007 -2.31871e-006 1.87057e-007 6.47774e-007 -164.431 -77.7828 -163.235 4.74769 0.0522324 -0.342515 -5.82408 -2.6294 -7.19543 3.40316e-007 -1.90153e-008 1.63767e-007 163.206 -77.0638 163.854 -5.69999 1.41877 0.36764 6.21497 -3.4218 5.44084 -6.7933e-007 6.63217e-008 8.14789e-008 
39.7391 68.3153 49.3631 180 75.004 -180 -0.359943 5.43715 -0.887295 -0.639171 10.8791 -1.75201 -0.639171 10.8791 -1.75201 4.95642e-006 0.451 -7.8337e-006 1.10897e-007 0.171379 1.66142e-006 -59.8609 36.3438 6.25149 -19.0713 57.3165 -17.0661 15.2878 -3.31451 -32.8982 42.0696 -7.74585 -1.56572 -1.59028e-015 -5.56597e-015 6.36111e-015 2.27333e-006 4.9808e-007 -6.44258e-007 1.59028e-015 -1.63003e-014 -3.18055e-015 -1.59028e-015 -5.56597e-015 6.36111e-015 -0.0145442 -8.86858e-005 -4.25979e-006 2.38542e-015 3.97569e-015 -6.36111e-015 -1.59028e-015 -5.56597e-015 6.36111e-015 -0.0187675 -0.00117641 5.15059e-005 -7.95139e-016 -7.95139e-016 -3.18055e-015 -1.59028e-015 -5.56597e-015 6.36111e-015 -0.0122709 -0.00324721 0.000682818 -2.64834e-031 -4.77083e-015 -3.18055e-015 -1.59028e-015 -5.56597e-015 6.36111e-015 2.27333e-006 4.9808e-007 -6.44258e-007 1.59028e-015 -1.63003e-014 -3.18055e-015 62.7709 35.9126 -8.66781 19.7884 57.4871 15.1945 -14.8786 -2.52366 23.6975 -41.6513 -7.12636 1.31465 2.31982e-006 -1.89432e-007 -6.43184e-007 2.31982e-006 -1.89432e-007 -6.43184e-007 2.31982e-006 -1.89432e-007 -6.43184e-007 2.31982e-006 -1.89432e-007 -6.43184e-007 0.0150358 -9.24687e-005 -5.05813e-006 2.31982e-006 -1.89516e-007 -6.43161e-007 2.31982e-006 -1.89432e-007 -6.43184e-007 0.0191033 -0.00119666 -6.39499e-005 1.5152e-006 8.12241e-007 4.09944e-007 2.31982e-006 -1.89432e-007 -6.43184e-007 0.0124002 -0.00328319 -0.00067837 1.5146e-006 8.12039e-007 4.09909e-007 2.31982e-006 -1.89432e-007 -6.43184e-007 2.31982e-006 -1.89432e-007 -6.43184e-007 2.31982e-006 -1.89432e-007 -6.43184e-007 -164.431 -77.7828 -163.235 4.74769 0.0522324 -0.342515 -5.82408 -2.6294 -7.19543 3.40316e-007 -1.90153e-008 1.63767e-007 163.207 -77.0632 163.855 -5.69999 1.4199 0.367702 6.21497 -3.42238 5.44087 -1.27683e-006 9.05807e-008 -5.52255e-009 
39.7391 68.3153 49.2577 180 75.004 -180 -0.353195 5.01605 -0.887238 -0.631685 10.0368 -1.75343 -0.631686 10.0369 -1.75343 -1.21054e-006 0.53585 -3.63589e-006 -3.87651e-007 0.203735 -1.1952e-006 -59.8993 37.3122 7.32833 -19.6462 57.4762 -16.7561 15.7565 -3.62559 -34.5484 41.4167 -7.36728 -0.272365 3.65978e-006 -3.87784e-007 -9.72099e-007 2.27343e-006 4.99286e-007 -6.43001e-007 4.54685e-006 9.98572e-007 -1.286e-006 3.65978e-006 -3.87784e-007 -9.72099e-007 -0.0145789 -8.79272e-005 -1.88297e-006 4.54685e-006 9.98736e-007 -1.28588e-006 3.65978e-006 -3.87784e-007 -9.72099e-007 -0.0187657 -0.00117585 5.74845e-005 4.54684e-006 9.9878e-007 -1.28588e-006 3.65978e-006 -3.87784e-007 -9.72099e-007 -0.0123613 -0.00327037 0.000678469 4.54682e-006 9.98683e-007 -1.28602e-006 3.65978e-006 -3.87784e-007 -9.72099e-007 2.27343e-006 4.99286e-007 -6.43001e-007 4.54685e-006 9.98572e-007 -1.286e-006 62.3944 37.0097 -9.8265 20.4432 57.6592 14.9057 -15.6795 -2.89475 25.7133 -40.7718 -6.41976 -0.103497 -2.08681e-006 4.41948e-007 1.05611e-005 -1.19271e-015 1.30204e-014 -0 -2.32091e-006 1.91334e-007 6.38751e-007 -2.08681e-006 4.41948e-007 1.05611e-005 0.0148961 -8.86073e-005 6.90642e-007 -2.3209e-006 1.91417e-007 6.38728e-007 -2.08681e-006 4.41948e-007 1.05611e-005 0.0189245 -0.00118625 -6.48614e-005 -2.3209e-006 1.91438e-007 6.38743e-007 -2.08681e-006 4.41948e-007 1.05611e-005 0.0122028 -0.00322848 -0.000669256 -2.32089e-006 1.91388e-007 6.38796e-007 -2.08681e-006 4.41948e-007 1.05611e-005 -1.19271e-015 1.30204e-014 -0 -2.32091e-006 1.91334e-007 6.38751e-007 -164.496 -77.7369 -163.3 4.74771 0.148838 -0.347434 -5.82391 -2.67814 -7.19791 4.27385e-007 -5.11418e-009 5.5751e-010 163.206 -77.0641 163.854 -5.69998 1.41813 0.367603 6.21497 -3.42149 5.44082 -7.95139e-016 9.93923e-017 -0 
39.7391 68.3153 49.1522 180 75.004 -180 -0.346447 4.59406 -0.886993 -0.624266 9.19283 -1.75451 -0.624266 9.19286 -1.75451 1.09609e-007 0.620631 -2.20656e-006 -2.40976e-008 0.236097 -3.03133e-007 -59.9615 38.2812 8.42177 -20.2253 57.6342 -16.4417 16.2177 -3.95094 -36.2013 40.7543 -7.00261 1.02717 3.97569e-015 4.37326e-015 3.18055e-015 4.54716e-006 1.00044e-006 -1.2835e-006 -2.97194e-006 1.10499e-006 -9.18237e-007 3.97569e-015 4.37326e-015 3.18055e-015 -0.0146416 -9.0788e-005 -7.39823e-006 -1.38694e-006 8.86638e-007 3.28065e-007 3.97569e-015 4.37326e-015 3.18055e-015 -0.0187922 -0.00117838 5.56276e-005 -1.38695e-006 8.86624e-007 3.2811e-007 3.97569e-015 4.37326e-015 3.18055e-015 -0.0122901 -0.00325445 0.000673342 -1.38692e-006 8.86644e-007 3.28087e-007 3.97569e-015 4.37326e-015 3.18055e-015 4.54716e-006 1.00044e-006 -1.2835e-006 -2.97194e-006 1.10499e-006 -9.18237e-007 62.0402 38.1142 -10.9947 21.1029 57.8295 14.6118 -16.4707 -3.29564 27.7338 -39.8732 -5.73285 -1.53529 2.20695e-032 7.95139e-016 -1.59028e-015 4.68978e-032 8.44835e-016 -3.18055e-015 1.14486e-031 4.12478e-015 -1.59028e-015 2.20695e-032 7.95139e-016 -1.59028e-015 0.015009 -9.1293e-005 -1.67519e-006 -2.64834e-031 9.54166e-015 1.59028e-015 2.20695e-032 7.95139e-016 -1.59028e-015 0.0189317 -0.00118963 -6.33826e-005 -1.24141e-031 4.47266e-015 1.59028e-015 2.20695e-032 7.95139e-016 -1.59028e-015 0.0121861 -0.00322641 -0.000675635 3.97569e-016 4.37326e-015 1.59028e-015 2.20695e-032 7.95139e-016 -1.59028e-015 4.68978e-032 8.44835e-016 -3.18055e-015 1.14486e-031 4.12478e-015 -1.59028e-015 -164.477 -77.7504 -163.281 4.7477 0.120359 -0.345982 -5.82395 -2.66379 -7.19718 1.2424e-016 -9.93923e-017 -0 163.206 -77.0638 163.854 -5.69998 1.41877 0.367638 6.21496 -3.42181 5.44084 -5.9617e-007 5.08875e-008 -8.79957e-008 
